<?xml version="1.0" encoding="UTF-8"?><svg id="Layer_2" xmlns="http://www.w3.org/2000/svg" viewBox="0 0 1265.9 290.88"><g id="Layer_1-2"><g id="SvgjsG1872"><path d="m148.88,181.61l-.47,1.87c-.58-.23-1.05-.35-1.28-.47l-9.58-4.26c-.29-.23-.64-.41-1.11-.64l-5.66-3.21-6.6-3.74m-40.24,1.93h0s-1.46-1.28-3.68,1.4c0,0-1.64,2.16-1.69,4.79,0,0-.12,1.64.58,2.39,1.46,1.75,3.33.35,4.26-1.28m-12.15-30.89c-.18-.18-.58-.76.06-2.34,0,0,0-.41-1.11.06,0,0-.82.12-.29-.35,0,0,1.46-1.64,1.93-1.17,0,0,1.75-1.81,2.22-2.63l13.67,2.1h.06c.12,0,.18.06.23-.06h0c.12-.12.06-.18,0-.23v-.06h0c-.06-.29-.23-.99,0-1.58.18-.35.47-.7,1.05-.93.06,0,.12-.06.18-.06.29.18.58.53.58,1.17.06,1.05-.58,1.58-1.23,2.39l-5.72,7.24s-.99,1.4-1.99,1.64c0,0-1.69-.06-1.64,1.23m1.23,12.21s-.41-.41-.7-1.11h0l-9.75,4.91c-.29.47-.47.93-.58,1.28l-.93,2.34-1.28-.06v-.12c-.06-.99-.58-2.16-1.34-2.8h0c-.88-.7-1.81-1.4-2.74-2.04-.64-.41-1.46-.58-2.22-.41l-1.69-.99c-.82-.53-1.93-.41-2.63.18h-.06l-2.28,2.1c-.23.23-.47.53-.58.82l-4.61,1.81c-.12.06-.18.06-.29.12l-6.25-7.59s-1.23-1.69.93-2.51c0,0,5.9-2.1,10.86-1.11,0,0,12.73,2.98,17.7,6.13,0,0-1.23,1.52-2.04,2.86l9.58-7.18c.12-.58.35-1.23.82-1.87l2.98,2.28-27.68-21.02c-.76.29-1.46.47-2.22.06-2.34-1.75-4.67-3.5-7.07-5.26,0,0-5.66-5.08-7.88-8.58-.23-.35-.47-.76-.41-1.23.06-.35.53-.76.76-.99.47-.47,1.28-1.23,2.1-1.52h0c.41.18.88.35,1.4.47l17.7.29c.41.12.76.23,1.17.35,1.46.41,2.92.76,4.38,1.11.29.06.58.12.88.23,0,.06-.06.18-.06.23-.06.58.35.99.88,1.23.18.06.35.18.53.23l6.25,2.1h.06c.88.18,1.64-.29,1.99-1.11v-.06l2.04.64h.06c1.52.29,3.1.29,4.61-.06.64-.12,1.34-.35,1.93-.58,1.17-.41,2.39-1.58,3.04-2.63l.47-.7-.64-.58c-.7-.64-1.64-1.17-2.45-1.58-1.05-.58-2.22-1.17-3.33-1.64-.7-.35-1.64-.64-2.51-.93l12.79-.7,2.22-5.78.76.88.7-1.17c2.74-4.61,5.49-9.29,8.23-13.9l.06-.12.06-.18c.12-.47.41-.64.88-.7.35-.06.76,0,1.11.06l.76.18.35-.76c.23-.47.99-.88,1.46-.99l.29-.06,4.79,8.12,1.05.58c-7.12,5.37-13.61,11.62-18.98,18.69v.12c-.29.41-.53.88-.76,1.34-.64,1.17-1.28,2.39-1.81,3.68-.93,1.93-1.75,3.97-2.51,5.96l-11.91-1.52c-1.05-.18-1.28-.58-1.17-1.17-4.96,2.34-10.22,4.26-15.59,6.02h0l9.17,7.36m.06.06h0l14.31,11.5-.53,3.04-1.69,1.05h0c-1.11.88-2.16,1.99-2.98,2.98h0m68.39,13.43l-16.59-7.42c-.41.29-.93.53-1.46.7m164.75-11.04c1.52-3.04,10.28-6.72,5.37-10.57,2.63,3.56-6.83,6.02-5.37,10.57Zm-249.08-24.88c-3.39-1.34-6.19-3.68-8.76-6.31-1.93-.29-3.56-1.4-4.61-3.5-.53-1.87-.88-3.8.47-5.61.82-.82,1.69-1.4,2.74-1.69.64,1.46,1.93,3.39,4.09,4.5-.53.35-1.4.93-2.16,1.69-.47.47-.64.64-.53,1.34.06.29.18.64.41.99,2.04,2.92,4.91,6.07,8.29,8.53l.06.06Zm27.56,3.85c-.12-.23-.18-.7.12-1.34,0,0,.53-1.11,1.34-.88l13.2,1.69c-.53.23-.88.64-.99,1.05-.29.64-.18,1.28-.06,1.69l-13.61-2.1v-.12Zm-8.06,58.05s2.51,7.77,4.2,10.16l5.02,2.04,3.21.29s3.21.18,3.97-3.27c0,0,.99-2.1-.7-4.2,0,0-1.05-1.11-4.03-.82l-.58-.41c.29,0,.64-.12.99-.64,0,0,1.69.12,1.69-1.23,0,0,.18-1.17-.88-1.34,0,0-.12-1.4-1.34-1.28,0,0,1.99-2.51.58-4.09,0,0-.88-.47-1.46.29l-4.56-1.52-.12-4.79s-.18-1.28.76-2.74c0,0,1.17-2.1,1.4-3.74-.06,3.97.88,5.78.88,5.78.23.64-.23,1.17-.23,1.17l-.12.12c-.82-.18-.93.82-.93.82,0,.93.64.99.64.99.18.35.41.64.41.64.58.64.88.41.88.41l.7-.23c1.11,1.75,4.03,3.33,4.03,3.33.29.7,1.23.58,1.23.58,1.11-.06,1.28-1.52,1.28-1.52.35-.41.53-.23.53-.23h0c.06,1.28.12,2.57.23,3.85,0,.64.23,1.11.76,1.46,3.68,2.28,7.65,3.85,11.68,5.02.47.06.88.12,1.34,0,.23-1.4.47-2.74.7-4.15,0,0,.18-1.4-.41-2.51s-1.81-3.45-1.81-5.43,7.36-36.68,26.75-52.68c0,0,3.39-4.2,9.64-8.29l-2.98,13.61c-.29,1.87-.35,3.85-.35,3.85l.23,10.75c-1.17,0-.93,1.81-.93,1.81-.35,1.11.12,2.22.12,2.22-.12.18-.12.64-.06.99l-.18.35.18.06c.12,1.64-1.58,1.69-1.58,1.69-2.92-.18-2.63,3.04-2.63,3.04h0l-1.93-1.11s-.82-.53-1.69.12l-14.13,12.96s-.93,1.28-1.87,2.98l-1.64,4.67s-.76,1.69-.23,3.33c0,0,.53,2.28.41,3.8,0,0-2.04,3.85-1.17,5.08,0,0,.06.18-.88.12l-2.57-.06-.47,2.69-.06.41-.41.12c-.58.18-1.11.12-1.69,0h-.12c-.82-.23-1.64-.47-2.45-.76l.47,3.68s.18.99.47,1.28c.93,1.4,2.86,3.85,4.73,3.97l12.67,1.4,6.07,2.34s.7.29,1.58.35l24.64,3.39s10.98,6.37,19.33,7.65c0,0,9.46.93,13.37.18h0c7.18,37.14,31.94,60.56,68.97,61.2,40.88,0,77.2-37.26,78.66-82.17.88-32.59-12.26-59.63-37.2-73.64,1.23.7,5.78,3.56,5.9,6.48v1.05s-.06.64.23,1.05l.58.64s.35.29.35-.23c0,0,.12-2.98-.41-3.74-1.4-1.93-4.32-3.85-6.83-5.26-.64-.35-1.23-.7-1.87-.99-13.2-6.89-26.57-9.52-39.3-8.35,7.88-4.67,17.52-6.13,26.16-1.75,2.57,1.28,4.44,2.57,3.74,5.96,1.17-1.11,1.28-3.5-.18-5.08-4.09-4.2-16.64-8.7-21.9-9.52-16.47-2.04-30.84,1.87-42.34,13.43l.06.29c.76,2.98,1.46,5.9,2.16,8.88-.12.12-.29.18-.41.29-.7-3.04-1.46-6.07-2.22-9.05-3.04.29-6.02.99-8.06,2.16l1.58,4.26c.18.35.35.88.23,1.23h.06l.12.18c.58.82,1.64,2.51,1.28,3.56h.29l.12.29c.23.41.53,1.11.82,1.81-.12.12-.23.23-.41.35-.41-.99-.82-1.93-.82-1.93-.58.06-.53-.58-.53-.58.41-.93-1.23-3.21-1.23-3.21-.58,0-.35-.53-.35-.53.41-.18-.06-.99-.06-.99l-12.32-32.82c-.64-.12-1.28-.41-1.69-.88l-.23.35-.12-.82c-1.28.35-2.28,1.05-3.15,2.1l-.41.47-.58-.29c-.12-.06-.18-.12-.23-.18-1.17.58-2.16,1.58-2.74,2.74-.29.58-.53,1.34-.41,2.04l.29.76c.06.12.18.23.29.29l.29.23v.35c.06.58.23,1.05.58,1.52l.23.29-.06.35-.06.35,8.12,21.55-1.64-4.32-24.94-13.61-3.85,2.34,8.88-11.27,7.18-2.74v-1.23c-1.17-1.34-1.69-3.56-.35-4.96.35-.35.7-.76,1.05-1.11l1.05-1.17h0c.29-.35.58-.64.93-.88.12-.76.53-1.34,1.28-1.64h0c.23-.06.47-.12.64-.06.29-.23.58-.41.99-.47h.23c.88.06,1.64.47,2.22,1.05.58-.12,1.17-.12,1.75-.06.06-.12.12-.18.18-.29-.18-.53-.23-.88-.06-1.4v-.12c0-.06.06-.06.06-.12l-8.41-22.48c-2.8-4.67-11.8-.82-9.99,4.56l4.44,11.86c-.53.18-1.11.41-1.64.58-1.11.41-1.11.64-1.11.64-.64,1.17-2.22,1.58-2.22,1.58l-3.62,1.34-2.39-6.89c-.53-1.69-2.86-2.45-2.86-2.45-20.62-2.57-39.77-1.58-56.82,4.5-.82.35,0,1.05,0,1.05,5.72,6.72,12.26,12.61,19.27,18.16.23-.18.47-.29.7-.41,3.27-2.04,6.66-3.97,10.16-5.66,1.34-.64,2.74-1.34,4.15-1.87l.06-.06h.12c1.69,0,3.33.06,5.02.12,6.95-2.16,14.48-3.15,22.25-3.68,1.23.06.7-1.69.7-1.69l-.18-.47c.7,0,.99,1.46.99,1.46,0,0,.06,1.4.35,2.86s1.34,1.05,1.34,1.05l3.85-1.23c.88-.47,1.34-1.93,1.34-1.93,0,0,.99-3.45,1.46-4.5l.41,1.05h0l-1.28,4.2s-.47,1.34-1.87,2.1l-3.33,1.17s-2.1.58-2.57-1.34c0,0-.29-2.16-.18-3.21,0,0-.06,3.39-1.34,2.98l-.18.93-6.31.82s3.56.35,4.56,2.74c-5.72-1.4-14.13-2.74-25.17-2.8,0,0-24.24,9.4-40.7,31.24,0,0-7.88,12.73-11.56,35.68h0c-2.98,1.28-6.37,6.31-6.37,6.31-2.1,2.92-3.39,6.72-3.97,8.88h0s-.41-5.2-4.73-2.8c0,0-3.27,2.63-4.09,8.64,0,0-.29,2.22-.06,3.33l-.12,1.87c-.23.12-.7.35-.7.82,0,0-1.17-1.23-2.04.41,0,0,1.34-.47,1.17,1.17-.47,1.93-2.86,2.1-4.5,1.46-.82-.29-1.58-.88-2.22-1.93l-1.23,1.4s-.47.41-.82.12-3.56-1.99-3.56-1.99c0,0-1.34-.93-.53-1.81,0,0,.18-2.92-1.81-3.91-1.11-.58-2.22-.53-3.56.53l-3.04-6.25-2.45-4.91c-.53-2.34-1.05-4.73-1.58-7.07l-2.22-6.42c-.64-.35-1.28-.7-1.87-1.05h0c-.41-.23-.82-.64-1.11-1.05-.64-.93-.76-2.04-.29-3.04l.06-.06.06-.06s0-.06.06-.06c-.29-.53-.64-1.17-.64-1.81l-2.8-1.75-.12-.12c-.58-.64-.64-1.64-.12-2.34h0c.53-.7,1.46-1.28,2.34-.82l.29.12-2.57-7.36c-.12-.64-.18-1.28-.29-1.93-3.04-8.53-14.19-5.14-16.47,3.33-.06.41-.12.82-.12,1.23.12.53.23,1.11.35,1.64,1.87,10.69,5.2,21.2,7.94,31.77.58,5.49,3.56,7.71,8.29,7.42,2.04,3.21,4.03,6.13,6.07,6.66.41.47.82.93,1.17,1.4l-1.93.99s-5.2,2.69-7.42,5.2l-8.7,8.82s-2.74,2.51-3.27,4.2c-.23-4.26-1.17-12.09-.41-15.83,2.74-4.67,5.96-8.53,9.75-11.27-.41-.18-.82-.41-1.23-.7-.58-.41-1.11-.93-1.52-1.52-17.34,15.77-32.41,62.55-11.74,80.01,5.78,4.91,13.96,6.48,23.89,2.39,15.3-6.25,25.46-26.16,29.55-41.46.06-.18.06-.35.12-.53-3.45-.58-6.31-2.04-8.7-4.96h0c-2.34-3.1-4.61-6.19-6.95-9.29-.35-.35-.76-.7-1.11-1.11l-.06-.06-.06-.12-1.69-2.57c-2.04,1.34-3.97,2.8-5.9,4.32-.7.53-1.34,1.05-2.04,1.58-2.16,12.73-7.18,24-14.42,34.05l1.64-10.34c.7-2.28,2.1-4.5,2.1-4.5-.06-.99-.58-.23-.58-.23-1.34,1.4-2.34,5.49-2.34,5.49l-1.64,9.17c-.06,1.05-.35,1.93-.35,1.99-.12.12-.23.29-.29.41-3.45,3.8-7.88,5.72-11.68,4.26-5.96-3.62-7.01-13.2-5.49-23.83,1.23-8.23,3.33-16.12,6.83-23.54.47-1.05.93-2.04,1.4-3.04h0c.93-.35,1.28,2.34,1.28,2.34l.58,9.64-.18.53v-.06l-.18-.18c-.29-.23-.35-1.11-.58-1.87s-.99-1.4-1.52-1.28-.53.76-.76.99c-.29.23-.23.82-.47,1.52-.12.29-.12.47-.12.64.12-.06.29-.12.41-.12.23,0,.47.12.58.29l1.23.53c.18-.18.47-.23.7-.23.12,0,.35,0,.47.06v-.06c-.06.12-.06.23-.12.35h0s-.58-.12-1.05.29l-1.52-.64c-.12-.18-.23-.23-.41-.23-.41,0-.82.47-.88,1.05-.12.58.12,1.05.53,1.05.18,0,.29-.06.47-.18h0l1.4.35s.06.88.82.58c0,.12-.06.23-.06.35-.53.12-.88-.18-.99-.7l-1.05-.23c-.18.12-.35.18-.53.18-.35,0-.58-.23-.7-.53-.41.53-.53,1.87-.53,1.87-.58.29-.41,1.23-.41,1.23-.29.64.7.53.7.53-.06.18.47.47.47.47-1.58,7.12-1.93,13.37-1.05,18.8.64,3.85,1.93,9.75,8.47,9.34-4.03-.47-6.25-3.85-7.07-9.34-.53-6.72-.12-13.08,1.34-19.04-.58.06-1.17.18-1.75.23l2.57-.41c-.12.7-.23,1.46-.35,2.22-.82,7.71.93,11.91,6.48,11.15l2.34.47-3.97,4.5c-2.98,1.4-5.55-1.28-6.48-2.51l.18,3.33c.47,3.1,1.52,6.54,4.09,8.12-.7-3.91,2.28-7.59,2.28-7.59l4.85-5.72,1.28.23c.88-.06,1.05-.99.82-1.93-.12-1.11,2.34-2.45,2.98-4.5.58-1.46,1.64-1.87,2.45-2.86.58-.82,1.11-1.75.76-2.57-.64-1.11-2.57-.29-3.68-.76.06-.12.12-.29.18-.47-.7.82-1.4,1.58-2.1,2.39l-.06.06-.06.06c-.12.12-.12.23-.06.35l.06.06v.06c.23,1.11-.58,1.99-1.64,2.16l-.23.06-.23-.12c-.35-.23-.82-.41-1.17-.53-1.05-.29-.99-1.4-.58-2.16.12-.23.35-.53.58-.7-.06-.41.06-.88.35-1.17l.06-.06.12-.06c.64-.35,1.23-.23,1.64.12,0-.06.06-.12.06-.12v-.06l.06-.06c.53-.82,1.17-1.58,1.75-2.34.76-.88,1.58-1.75,2.39-2.63.18-.18.35-.41.58-.58.7-2.92,1.11-6.25.76-8.99-.76.58-1.52,1.17-2.22,1.81h-.12c-1.28.93-2.63,1.87-3.85,2.8-1.05.76-2.22,1.64-3.21,2.45-.99.88-2.51,1.69-3.85,1.69h-.12c-.99-.06-1.46-.93-1.58-1.81l1.05-.88c-.06.18-.06.35-.06.53,0,.58.18,1.17.7,1.23,0,0,1.58,0,3.21-1.46s7.18-5.31,7.18-5.31c0,0,4.85-4.09,7.36-5.2,2.39-1.11,7.42-2.8,7.88-2.92.82.99,1.58,2.04,2.39,3.04l-.06-.12c-.99.88-7.94,7.07-9.99,8.76,0,0-7.53,6.95-9.64,10.28,0,0-.35.99-.76,1.11,0,0-.35-1.23-1.28-.7,0,0-.47.47,0,1.05,0,0-.58.12-.88.76,0,0-.58.93.18,1.17.76.18,1.34.58,1.34.58,0,0,1.34-.18,1.05-1.34,0,0-.35-.7.23-1.17,0,0,3.56-4.09,5.31-5.84,1.69-1.75,10.51-9.17,15.88-12.56-.23-.29-.41-.58-.64-.88.99,1.34,1.99,2.74,2.92,4.2.41.35.76.76,1.17,1.11,2.34,3.1,4.67,6.25,7.01,9.34,3.04,3.68,6.72,4.67,10.57,4.91l41.23,5.49c-.06.82-.12,2.45.76,2.86,0,0-.18.35,0,.47,0,0-.12.23.12.41,0,0-.12.23.12.7l3.1,6.37s.23.29.53,0l2.1-1.28,4.32,8.41-1.28.82s-.47.35-.29.7c0,0,.06.58.82.23l1.34-.64,10.86,20.09c.06.12.12.41-.18.41-.82,0-1.64,0-2.16.29,0,0-.88.53-.12,1.05,0,0,.64.41,2.45.47,0,0,2.51.18,4.44-.53.53-.18,1.99-.82.93-1.46-.64-.41-1.93-.35-2.28-.23l-10.51-21.43,5.2-2.8s1.11-.06.82-.99c0,0-.18-.53-.82-.35,0,0-.23.12-.47.53l-5.31,2.39-6.48-11.62s-1.11-1.75.35-2.22l-.12-1.05-.18-.53,11.5,1.52c7.88-.29,14.13-3.04,19.39-7.36-1.05-.53-2.1-1.05-3.1-1.64l-14.31-1.99c-.88.29-1.81.47-2.86.53-19.33-2.16-38.72-4.32-58.05-6.42-3.21-.64-5.84-2.16-7.83-4.73-1.64-2.45-3.27-4.85-4.91-7.3-.47-.76-.99-1.52-1.46-2.28l-2.45-3.68c.88-.18,1.69-.35,2.51-.47,0,0,5.02-2.63,11.15-1.28l.41,5.49.64.23Zm10.28,3.15l-.47-.29-.41,4.32-3.68-6.31s0-.41-.06-.64c0,0,.58-.7.58-1.93l3.04,2.98s-.18,1.52.82,1.75c0,0,.06.06.12.18l.06-.06Zm1.81-20.62l.82-.93s2.16,2.1,4.56-1.05v.06c.23-5.9.82-11.39,1.58-16.41h0s-.29.18-.76.47l.06,1.4c-1.05.58-2.86,2.57-2.86,2.57l-.29-1.05c-.93,1.05-1.87,2.39-2.8,4.09l.35.53c-.7.93-1.75,4.32-1.75,4.32l-.47-.41c-.41,1.34-.82,3.04-.99,4.85l.76-.12s-.35,2.92,0,4.26l-.88.58c.23,2.04.99,4.56,3.15,5.55,0,0,2.45,1.23,4.85-.58h0v-.64c0,.06-.12.12-.58.12l-.18-1.11s.58-.06.7-.41h0c0-2.1,0-4.2.06-6.19v.06c-1.4,1.81-3.91,1.99-5.26.06h-.06Zm-63.01,14.54c.06-.12.12-.18.18-.29-.06.12-.12.18-.18.29Zm42.87-72.47s-1.46-.35-.29-1.11c0,0,1.81-1.05,2.51-1.34,0,0,2.51-1.05,6.02-.53l11.04,1.69s2.69.41,4.26,1.23c0,0,4.03,1.81,5.55,3.1,0,0-1.23,1.81-2.63,2.28,0,0-2.69,1.28-5.96.58l-3.04-.93s-.06,1.64-1.11,1.4l-6.19-2.1s-1.64-.58.06-.64l2.28-.12c-4.15-1.17-9.52-2.1-12.56-3.62l.06.12Zm-34.81,120.95l-1.11,1.52c.41-.53.76-.99,1.11-1.52Zm-11.91-31.07c.18,0,.29.23.23.47s-.23.47-.41.47-.29-.23-.23-.47.23-.47.41-.47Zm.06-.35c.29,0,.47.35.41.82s-.41.82-.7.82-.47-.35-.41-.82.41-.82.7-.82Zm13.32-12.91c-2.92.58-6.02,3.97-8.35,8.53.7-.88,1.46-1.64,2.04-2.16l6.31-6.42v.06Zm42.52,22.83c.12.18.29.29.82.35,0,0-.76,3.5,2.63,5.02,0,0,10.22,5.31,17.46,2.39,0,0,10.92.47,12.38.35,1.34-.12,2.69-1.05,3.74-3.15l-37.03-4.96Zm-3.68,4.38c.53.06.58.06.64-.12s.18-.82.64-.58.64,0,.7-.35c.12-.35.58-.53.99-.29.35.23.58-.41.64-.7,0-.06.06-.12.18-.12,0,.06.06.18.06.23.18.93.64,1.69,1.23,2.34-.18.12-.06.47-.12.7-.12.35-.18.29-.93.18s-.29,1.23-1.23.93c0,0-.58-.23-.76.18-.18.47-.29.53-.64.35s-.35.06-.58.35c-.18.29-.53.53-.93.41-.35-.06-.64.47-1.23.47.47-1.34.93-2.63,1.34-3.91v-.06Zm-21.72-53.96c2.04-.12,4.09.06,5.96.41-.06.23-.06.47-.06.76-.41.53-.47,1.23-.18,1.87l1.52,4.09c.29,1.28,1.58,2.22,2.8,2.63.47,1.11,1.58,1.99,2.69,2.39l.18.06h3.8l.06-.93c0-.64.41-1.05.82-1.52l1.23-.99c.76.99,1.46,2.04,2.16,3.21.29.88.58,1.69.88,2.57-.53.23-.93.64-1.23,1.23-.35.93.53,1.4,1.05,1.46-.35,1.23-2.28,1.11-3.21.76-.76-.29-1.28-.82-1.69-1.46l-.7-1.17-1.87,2.22c-.12-.12-.29-.18-.41-.23-.35-.23-.76-.41-1.11-.64-.58-.29-1.17-.64-1.75-.93-.12-.06-.23-.23-.29-.35h0l.23-.23v-.35c.06-.58-.06-1.28-.18-1.87-.29-1.28-.99-2.39-2.16-2.98-.47-.23-.93-.41-1.46-.47-.82-.12-1.52.06-2.16.41l-2.57-5.26-2.28-4.56-.06-.12Zm23.59,20.91c1.23,5.78,1.52,11.45.64,16.94-1.69-.76-3.15-1.87-4.32-3.39-1.64-2.39-3.27-4.85-4.85-7.24-.53-.76-.99-1.52-1.46-2.28-.53-.82-1.11-1.64-1.64-2.51l1.05-.18h.18l.18-.06c1.28-.7,3.21-1.17,4.67-1.4,1.93-.29,3.85-.23,5.66.18l-.12-.06Zm-7.48-33.35c.12-.35.29-.7.41-.93.35-.64.18-1.28.23-1.69.06-.35-.18-2.1,1.69-3.8,0,0,1.23-1.17,2.86-1.23,0,0,1.23.12,1.69-.18.47-.35,2.22-1.05,3.1-.53,0,0,3.74,1.93,5.66,4.56l3.04,3.74-3.85,5.55h-.06c-1.05-.64-2.28-1.23-3.45-1.69-1.34-.58-2.74-1.05-4.15-1.52-2.34-.76-4.73-1.46-7.07-2.1l-.12-.06v-.12Zm-.35,23.71h-2.74s-1.99-.7-2.22-2.22c0,0-2.34-.58-2.63-2.1l-1.58-4.2s-.35-.82.29-1.11c0,0-.41-1.46.82-1.87l5.08-1.99s-.06-.47.35-.82l2.28-2.04s.82-.58,1.58-.12l2.1,1.23s.76-.53,1.75.12,2.69,1.99,2.69,1.99c0,0,.93.82,1.05,2.16,0,0,.23,2.22-.41,2.92l-7.36,6.02c-.58.64-1.11,1.28-1.11,2.16l.06-.12Zm-.12-9.05s.23,1.34,1.64.82l3.1-2.45s.99-.93,0-1.75l-3.56-2.28c-.53-.35-1.4-.64-1.4.58l.18,5.02.06.06Zm-26.57-25.29s-.47-.53-.06-1.17c0,0,.58-.82,1.11-.53l3.45,1.64s.82-1.28,1.75-.7l.06-2.39s-.99-1.11.23-1.87c0,0,1.11-.76,2.1-.06,0,0,.7,1.11-.18,1.81l.29,3.74s1.05.58.82,1.34c0,0,0,.35.35-.23,0,0,.06-.47.41-.58.41-.18.29-.47.18-.58s-.47-.76-.47-.99-.41-10.28-.41-10.28c0,0,0-1.4.47-2.04,0,0,.58-1.23,1.17-1.81,1.28.88,2.63,1.64,4.09,2.22,2.34,1.75,4.61,3.45,6.95,5.2l.06.06.06.06c.88.47,1.69.41,2.57.18l.93.76s3.62,2.74,3.5,4.91c0,0,.12,1.87-1.81,2.34l-12.26,3.39s-1.64.47-2.22,1.46l-3.21,3.68s-.58.7-1.46.35-3.8-1.99-3.8-1.99c0,0-1.81-1.05-.99-2.86,0,0,.29-.47.23-.82,0,0-1.11-1.64-.53-2.04l-3.27-2.1-.12-.06Zm12.21,50.63l-1.69-2.04c-.47.18-1.4.47-2.57.88-.06,1.81-.23,3.56-.41,5.31l.12-.12c1.52-1.34,3.04-2.69,4.56-4.09v.06Zm-5.96-81.53c-.12-.99,0-1.05,2.34-1.75,2.1-.53,4.2-1.11,6.31-1.64l5.08-.35c1.52.41,2.98.76,4.5,1.17,6.83-2.8,15.01.35,23.48,4.73-.47-.12-.93-.18-1.34-.23l-11.04-1.69c-1.52-.23-3.1-.18-4.61.06-.58.12-1.34.29-1.93.53-.88.35-1.81.93-2.63,1.4h0c-1.52.99-.99,2.39.47,2.86.47.23.99.41,1.52.64l-16.47-.76c-3.21-.76-4.85-3.21-5.55-4.91l-.12-.06Zm21.55,18.98s0-1.28-5.43-4.96c-.12-.06-.06-.23.47-.29,0,0,4.73-.7,7.3-1.4,0,0,7.42,1.69,10.63,1.69,0,0-2.45-1.81-9.17-3.68,0,0-1.05-.47-3.5-.41,0,0-4.73-.23-8.53.82,0,0-1.81.93-.82,2.98,1.81,2.69,6.13,4.03,9.11,5.26h-.06Zm156.75,7.71c.41,1.75.82,3.56,1.17,5.31.12-.12.29-.18.41-.29-.41-1.75-.76-3.56-1.17-5.31-.18.06-.29.18-.47.29h.06Zm2.1,9.52c.58,2.63,1.11,5.26,1.64,7.83-3.15,1.34-2.98,5.9.64,6.19l-.12,4.79h-.06c-.7.18-1.34.29-2.04.47-.35-.88-.76-1.81-1.11-2.69-.18-.64-.58-1.17-1.17-1.23l-8.64-23.01.12-.06c1.17-.88,2.51-2.51,1.75-4.03v-.06l-.06-.06c-.12-.12-.23-.23-.35-.29v-.23c0-.23-.06-.58-.12-.93l-.53-.18c.12.41.18.82.18,1.05-1.28-.47-3.39,0-4.5.35h0c-2.45.76-5.96,2.92-6.66,5.72-.12-.23-.23-.53-.35-.82l-10.34-5.49c-.06.88,0,1.4,0,1.4l11.1,5.84c0-2.98,3.85-5.37,6.42-6.19,1.87-.53,4.09-.82,4.79.06.53,1.05-.23,2.45-1.58,3.45-.35-.99-.82-1.23-1.93-.93h0c-2.34.76-5.84,2.16-5.31,5.26v.12l.12.29c-.99,1.05-1.99.41-2.39-1.11,0-.12-.06-.23-.06-.35l-11.04-5.84c.12.58.29,1.11.41,1.64l10.22,5.37-.06.18c-.06.06-.12.12-.12.18l-9.87-5.2c.18.58.35,1.11.53,1.69l8.58,4.5c-.06.12-.18.23-.23.35l-8.12-4.26c.18.58.41,1.17.58,1.75l6.77,3.56c-.06.12-.18.23-.23.35l-6.31-3.33c.23.64.53,1.23.76,1.81l4.79,2.51c-.06.12-.18.23-.23.35l-4.32-2.22c.35.7.64,1.34.93,1.87l2.63,1.34c-.06.12-.18.23-.23.35l-2.04-1.05c.82,1.4,1.34,2.1,1.34,2.1h0l-.06.06c1.4-2.1,2.92-4.09,4.5-6.07.41.76,1.05,1.34,1.93,1.52.35.06.7.06,1.05-.06l1.75,4.61c-8.41,9.93-13.96,22.6-17.05,36.32-4.91,40.53,11.33,62.43,36.73,70.26,16.7,3.33,32.41-1.34,44.97-11.04,32.59-25.05,41.23-87.31,3.39-108.92-11.74-6.72-24.64-8.53-36.85-5.9-.82,1.99-1.34,3.85-1.58,5.66,18.1-5.26,36.73.82,47.6,16-13.61-15.65-31.36-19.04-47.89-12.56-.12,6.6,1.93,12.5-.93,20.26l-.35.47c-.18,0-.35.06-.53.06h0c-3.15.64-5.43,2.51-7.18,5.08l-.06.06c-.23-.06-.47-.12-.76-.12l.12-4.79v-.12c3.85-.88,3.74-6.66-.64-6.19h0c-.53-2.69-1.11-5.37-1.69-8.06-.12.12-.29.23-.41.29h-.23Zm-42.63,56.24h0c-.41-.12-.88-.18-1.28-.23l7.24-44.15,1.93.99-.18-.06-1.69,10.92c.41-1.17.88-2.28,1.34-3.45l1.11-7.18,1.75.88.06-.06c-5.72,11.45-9.34,24.18-10.4,37.43l.18,4.91h-.06Zm5.37-44.68l-.18-.06-7.24,44.33c-.64-.18-1.34-.41-1.99-.93l-.06-.06,7.59-44.27,1.93.93-.06.06Zm-2.51-1.28l-.18-.06-7.53,43.86c-.7-.93-1.4-2.28-1.75-3.1l7.53-41.7,1.93.93v.06Zm-2.51-1.28h-.18l-7.36,40.65-1.52-3.62,7.18-37.96,1.87.93Zm-2.51-1.28h-.12l-7.01,36.97-1.52-3.56,6.77-34.34,1.87.93Zm-2.51-1.28h-.12l-6.6,33.35-1.52-3.62,6.37-30.66,1.87.93Zm-2.51-1.28h-.12l-6.25,29.84c-.47-.82-1.05-1.52-1.69-2.22l6.19-28.5,1.87.93v-.06Zm-2.51-1.28h-.06l-6.13,28.15c-.58-.53-1.17-1.05-1.81-1.58l6.19-27.51,1.81.93Zm-2.51-1.28h-.06l-6.13,27.33c-.64-.47-1.23-.88-1.87-1.23l6.25-26.98,1.81.93v-.06Zm-2.51-1.28h-.06l-6.25,26.92c-.64-.35-1.28-.7-1.93-.99l6.42-26.81,1.81.88Zm-2.51-1.28h0l-6.42,26.81c-.7-.35-1.4-.64-1.99-.88l6.66-26.81,1.75.88Zm-2.57-.93l-.47,1.93-6.77-3.04c1.11-.58,1.4-1.28,1.46-1.52l5.78,2.57v.06Zm-.7,2.74l-.47,1.93-9.93-4.44c.23-.06.35-.06.35-.06l2.51-.82,7.59,3.39h-.06Zm-.7,2.74l-.47,1.93-4.79-2.16c-.88-.76-1.93-1.23-3.04-1.34l-3.85-1.69c.35-.47.64-.93.64-.93.18-.23.41-.47.7-.64l10.8,4.85Zm-.7,2.74l-.47,1.93-1.64-.7c-.29-.99-.7-1.93-1.23-2.74l3.33,1.52Zm-.7,2.74l-.47,1.93-.53-.23v-.12c0-.76-.06-1.46-.18-2.16l1.17.53v.06Zm-.7,2.74l-.47,1.93-.23-.12c.18-.64.29-1.28.35-1.99l.35.18Zm-.7,2.74l-.47,1.93-.58-.29c.35-.53.64-1.17.82-1.81l.23.12v.06Zm-.7,2.74l-.47,1.93-1.87-.88c.58-.41,1.05-.88,1.52-1.52l.88.41-.06.06Zm-.7,2.74l-.47,1.93-16-7.18c.53-.47.99-.99,1.4-1.52l5.14,2.28c1.17,2.28,3.1,3.8,5.31,3.8.76,0,1.46-.18,2.1-.47l2.57,1.17h-.06Zm-29.43,21.37l-2.04-.35-.12-.35,11.91-.93.12-.64-7.48.64-.06.35-4.91-.82v-.41l12.85-1.05.18-.64-7.77.58-.12.47-5.02-.7v-.47l12.96-1.11.23-.76-7.77.7v.47l-5.43-.7.06-.47,15.88-1.58,2.74.88-.06.53-4.85.29-.23.58,2.16-.18,2.51.76-.06.35-4.67.41-.06.41,1.69-.12,2.86.93-.06.41-4.73.41-.12.41,1.34-.12,2.8,1.11-14.72.7h-.06Zm14.02-10.28c-.7-.58-1.52,1.11-.7,1.46.18.06.35.06.58-.12.41-.35.53-.99.12-1.4v.06Zm.64-.29c-1.17-.93-2.57,1.46-1.58,2.34l-2.98-1.11-.12.35-9.4.7.06.41,2.63,1.11.06-.41,7.65-.88-.12.58.82-.06.12-.35,1.46-.18c.06.06.12.06.23.12.29.12.7.12,1.05-.18.76-.53.99-1.75.29-2.34l-.18-.12Zm-.18.12c-1.05-.88-2.39,1.64-1.11,2.16.23.12.58.06.88-.12.64-.47.88-1.46.23-1.99v-.06Zm-11.1-7.18s2.04.29,3.91-1.05l-1.81-.88c-1.81-.99-2.98.35-2.98.35l-9.64,8.35c-2.22,1.64-1.69,3.5-1.69,3.5l2.16,5.14c.7,2.1,3.21,2.51,3.21,2.51l17.99-.47c1.69.18,1.64-3.74,1.64-3.74.12-.06,3.62,2.22,7.83,5.02l2.51-10.63-.12-.06-8.94-4.38-1.11-.53-.23.47-4.26.7.06-.58-4.26.53-.82.53-5.26-.64.06-.47,12.26-1.69-4.5-2.1s-3.62,3.45-8.35,2.1c0,0-.35-.35.29-.93.7-.47,1.23-.7,1.99-1.11l.06.06Zm13.02,5.66l-4.2.64-.82-.64-5.78.64-.58.53-3.33-.7v-.53l12.61-1.52,2.16,1.05v.53h-.06Zm-12.85,3.15v-.41l7.3-.76,1.87.23.35-.53-2.63-.93v.47l-9.34.88,2.45,1.11v-.06Zm23.18,11.8l2.57-11.27-2.04-.82-2.57,10.8c.64.47,1.34.88,1.99,1.34l.06-.06Zm3.33-10.98l-2.63,11.45c.7.47,1.34.88,2.04,1.34l2.69-12.03-2.04-.82-.06.06Zm2.8,1.11l-2.69,12.21c.7.47,1.34.93,2.04,1.34l2.74-12.73-2.04-.82h-.06Zm2.8,1.11l-2.74,12.91,1.93,1.28,2.86-13.37-1.99-.82h-.06Zm2.74,1.11l-2.92,13.55,2.16,1.46,2.69-13.14v-1.11l-1.93-.76Zm2.22,4.56l-2.16,10.98,1.17.76c-1.64-.99-4.96-1.17-4.96-1.17l-13.49-10.16c-.93-.35-1.17.35-1.17.35-.58.76-2.45,4.03-2.45,4.03-.23.7-.82.29-.82.29l-3.39-2.45c-1.17-.23-2.1,0-2.1,0,.41.47.12,1.75.12,1.75l-3.85,9.34c-.29.88-.88,1.05-.88,1.05-3.39.99,2.98,1.4,2.98,1.4,2.63-1.52,6.54-8.53,6.54-8.53,3.21,1.99,20.85,3.74,20.85,3.74,1.58.23,2.74,1.17,2.74,1.17.12.23.23.47.29.64l1.64-7.53c-.47-2.04-.88-4.03-1.17-5.78l.12.12Zm1.58,7.65l-1.46,6.77c1.34,2.22,3.04,3.85,4.85,5.02,0-.06-1.87-5.78-3.39-11.8Zm-16.82-38.95c.35,0,.58.35.58.82s-.29.82-.58.82c-.35,0-.58-.35-.58-.82s.29-.82.58-.82Zm-.23-6.83h.29c-2.92.18-5.26,3.5-5.26,7.48s2.34,7.3,5.26,7.48h-.29c-3.04,0-5.55-3.39-5.55-7.53s2.45-7.53,5.55-7.53v.12Zm-6.19,11.33c-.29-.76-.47-1.58-.58-2.39l-2.98-1.34c-.18.64-.41,1.23-.76,1.81l4.26,1.93h.06Zm-.64-3.33v-.47c0-.58.06-1.11.12-1.64l-2.51-1.11c-.06.64-.12,1.34-.29,2.04l2.69,1.23v-.06Zm.23-2.92c.12-.64.35-1.28.58-1.87l-3.27-1.46c.06.64.12,1.4.06,2.22l2.63,1.17v-.06Zm.93-2.63c.35-.64.7-1.17,1.17-1.64l-6.02-2.69v.82s.82,0,.93.76c0,0,.12.41.18,1.11l3.74,1.69v-.06Zm1.75-2.28c.64-.58,1.4-.99,2.22-1.17l-2.8-1.23c-.41.29-.82.47-1.23.23,0,0-1.23-.06-.99-1.23l-3.85-1.75c0,.82.06,1.58.06,2.16l6.6,2.98Zm3.56-.76c3.27,0,5.96,3.62,5.96,8.12s-2.69,8.12-5.96,8.12-5.96-3.62-5.96-8.12,2.69-8.12,5.96-8.12Zm0,5.55c.23,0,.47.12.64.29-.12-.06-.23-.06-.35-.06-.7,0-1.28,1.05-1.28,2.34s.58,2.34,1.28,2.34c.12,0,.23,0,.35-.06-.18.18-.41.29-.64.29-.76,0-1.4-1.17-1.4-2.57s.64-2.57,1.4-2.57Zm-1.64-10.69v-.64s-1.23.29-.93-.53c0,0,.29-.7,1.23-.88,0,0,.41-2.45.76-2.86l.12.06c.06.18.29.93,1.4.76,1.05-.18,1.23-1.05,1.28-1.52,0-.06,0-.12.06-.18h0v-.06h0c.06-.18,0-.58-.06-.93s-.23-.64-.47-.76c.18-.12.41-.64-1.99-1.75,0,0-.35-.29-.53-.58l2.69,1.69c.41.35.82.76.99,1.28.06.12.12.35.06.47h0l-.18,3.27c-.06.88-.82,1.75-1.64,2.1l-2.63,1.05c-.06,0-.12.06-.18.06v-.06Zm1.23-5.02c.06-.06.06-.18.06-.29.12.06.47.23.93-.12.06-.06.64-.35.53-1.17,0-.06-.06-.41-.53-.53h0c.12-.12.35-.41.76-.47.06.06.18.06.29.12h0c.18.06.35.35.41.64.06.35.12.7.06.88v.06h0c0,.06,0,.12-.06.18-.06.41-.23,1.28-1.17,1.46-1.11.18-1.23-.7-1.23-.7v-.06h-.06Zm-.06-.47c-.12-.12-.23-.41-.06-.99,0,0,.41-.88.93-.7v.06h.06c.47.12.47.41.47.41h0c.12.76-.47,1.05-.47,1.05h0c-.53.35-.88.06-.88.06h-.12l.06.12Zm-2.1-7.94l44.91,24.18-.06.12c.93-1.69,1.93-3.33,2.98-4.91l-.06.06-45.79-23.71-.47,1.23,45.61,23.54c-.06.12-.12.23-.23.35l-45.55-23.48-.29.82c-.06.18-.06.29-.12.47l45.32,23.3-.12.18-.12.18-45.26-23.3c-.23.47-.53.82-.82,1.05h0l.06-.06Zm-7.71,13.26l4.09,1.81.53-1.93-4.67-2.1c.06.7.06,1.46.06,2.22Zm-.12-3.1l4.91,2.22.53-1.93-5.55-2.51c0,.41,0,.76.06,1.17.06.29.06.7.06,1.05Zm-.12-3.1l5.78,2.57.53-1.93-6.13-2.74c-.06.64-.12,1.34-.12,2.1h-.06Zm.23-2.98l6.25,2.8c.12-.53.47-1.64,1.58-1.75l.35.41s-1.05.18-1.4,1.64l-.18.82-.47,1.99-.18.82v.06h0l-.35,1.58h1.05l.58.64h.53s-.12,1.05,1.11.53l1.75-.7.99-.41c.29-.18,1.11-.7,1.4-1.52.18-.18.18-.82.18-.82l.18-3.1s.18-.88-1.17-1.93l-2.86-1.81s-.82.18-1.58-.53l-1.34-.93s-.35-.35.18-.88l.64-.53c-.47.23-.82.23-.82.23-1.81.35-4.5-.82-4.5-.82-2.16-.88-2.28-2.1-2.16-2.74.12.7.47,1.52,1.46,1.4l2.1.18h.18l.06-.18,3.85-12.91s3.21-1.05,5.31-1.69l-.18-.12.18-.35.53.29c.64-.18,1.17-.35,1.28-.35h0l-.35.82,34.75,18.34c0-.47,0-.93.06-1.4l-34.75-18.4c-2.1.29-4.26,1.17-6.25,1.81l.23-.7-7.36,3.21-1.64,8.82.06.06-.18.88c-.29,1.4.53,2.39,1.64,3.1l-.58,3.1s-.06.41-.18,1.05Zm20.91,9.34c.53-.35,1.28-.99,1.34-2.1l-2.45-1.46s-.82-.53-1.34-.12l-2.74-1.4s-.88-.23-.99.35l-.18,1.87,6.31,2.8.06.06Zm40.12-6.42l-10.1-5.37c0-.41.06-.88.12-1.34l9.52,5.08c.12.53.29,1.11.47,1.64Zm-.53-2.16l-9.4-5.02c.06-.41.12-.88.23-1.28l9.34,4.96c-.18.35-.23.82-.18,1.34Zm.18-1.34v-.06.06Zm-.23-.58l-8.99-4.79c.12-.41.18-.82.29-1.28l8.06,4.32c.18.7.47,1.34.64,1.75Zm-.76-2.28l-7.83-4.2c.12-.41.23-.82.41-1.23l7.42,3.97c-.06.47-.06.93.06,1.46h-.06Zm.06-1.87l-7.36-3.91c.18-.41.29-.76.47-1.17l6.31,3.39.35.99c.58,0,.23.58.23.58,0,.06-.06.12-.06.18l.06-.06Zm-.76-2.28l-5.9-3.15c.18-.35.41-.76.58-1.11l4.67,2.51.64,1.75Zm-.76-1.99l-.12-.35-4.2-2.28c.29-.47.58-.88.93-1.28l2.45,1.28.99,2.69-.06-.06Zm-4.44-4.44l-.76-.41s-.35.47-.82,1.34l-26.46-14.25.82-1.05,27.27,14.37h-.06Zm-28.21-13.08l-.06.12,26.51,14.31c-.18.35-.35.7-.58,1.11l-26.81-14.37-.12.18.99-1.28.06-.06Zm-1.17,1.46l26.86,14.42c-.18.35-.35.76-.53,1.17l-27.16-14.54.82-1.05Zm-1.05,1.34l27.27,14.6c-.18.41-.29.76-.47,1.17l-27.62-14.78c.12-.18.29-.29.35-.53l.41-.53.06.06Zm-1.11,1.34l27.8,14.83-.35,1.23-28.79-15.36c.47-.18.93-.41,1.34-.76v.06Zm-1.87.93l29.2,15.53c-.12.41-.18.82-.29,1.28l-31.07-16.53c.35-.06.7-.06,1.05-.12,0,0,.47-.06,1.05-.23l.06.06Zm-2.86.41l31.71,16.82c-.06.41-.12.88-.18,1.34l-34.05-18.05h.64l-.06.18c.64-.12,1.28-.18,1.93-.29Zm-7.59,12.85l.47-1.23,43.39,22.54c.41.7.82,1.4,1.28,2.04l-45.14-23.36Zm.64-1.58l.47-1.23,41.41,21.55c.29.64.64,1.28.99,1.93l-42.87-22.25Zm.64-1.58l.47-1.23,39.71,20.73c.23.58.53,1.17.76,1.81l-40.94-21.32Zm.64-1.58l.47-1.23,38.19,20.03c.18.53.41,1.11.64,1.75l-39.3-20.56Zm.64-1.58l.47-1.23,36.91,19.39c.12.53.29,1.05.53,1.69l-37.9-19.86Zm.64-1.58l.47-1.23,35.74,18.8c.06.35.23.93.41,1.64l-36.62-19.21Zm.64-1.58l.47-1.23,34.86,18.45c0,.47.06.99.12,1.46l-35.51-18.69h.06Zm-12.15,1.81l-1.52,8.12.12.18.06.12s-.12,2.1,1.11,1.99h.06l1.93.18,3.85-13.02-5.61,2.45Zm-41.17-14.02c-3.04-3.56-1.4-17.7,2.34-29.14,7.01-16.06,38.78-20.32,60.56-9.99-20.91-6.77-39.83-6.54-55.36,5.55-.93.88-1.58,1.99-1.23,3.15,2.39,4.5,4.79,9.05,7.18,13.55,0,0-1.64.41-2.1,1.52,0,0-2.74-.64-3.15,1.4-2.74,4.61-5.49,9.29-8.23,13.9v.06Zm62.25-39.71c1.34,1.23,3.45,2.28,4.09,3.68,3.39.58,7.18,2.34,11.27,4.5l-1.69-4.44c-4.79-3.21-9.46-5.02-13.67-3.74Zm-4.56-2.39s2.57,1.46,3.85,2.1l.53-.18c1.23-.41,2.45-.53,3.74-.41-2.16-1.28-6.42-2.22-8.12-1.52Zm-50.4,10.04s-.47.88.35.7c0,0,.06,0,.06-.06h0c8.76-3.1,17.93-4.85,27.21-5.49,9.93-.7,19.97-.23,29.84.99h.12c.23.06.41.12.64.23l.47-.06c-13.14-9.23-43.86-10.28-58.63,3.68h-.06Zm95.37,31.94c.35-1.46.64-3.62.18-5.66,0,0-2.63-.64-2.98-2.69,0,0-.64-2.51,1.64-4.26.18.18.47.23.7.23.29.47.93.47,1.46.29l2.39.93c0,.35.18.7.41.93l.06.06,2.8,1.05c-.18.58-.06,1.23.53,1.58h.06l2.1.99-.58.82v.06c-.58,1.23-.41,2.8.35,3.91h0c.7.93,1.58,1.69,2.69,2.1l2.86,10.16-4.03,1.75s-1.05.64-2.28.23l-3.85-.88-4.5-11.68v.06Zm-28.27-39.95c-1.34-1.46-3.33-6.02-2.8-7.18.7-1.28,1.52-2.34,2.39-3.1h-.41s-5.37-7.36-7.77-8.53c-2.45-1.17-9.87-.99-12.96-.99s-14.02.23-11.39-2.69h0c-.47-.18-.82-.47-.88-.93,0,0,0-.47.12-.99.93-2.22,1.46-4.56,1.69-6.95v-.06l.12-.82s.23-1.11,1.17-.82c.99.35.93.12.93.12,0,0,.88.06.76.76,0,0,.99.18,1.58.99h0s1.23-.7.58-1.58c-.58-.88-1.58-2.57-.58-2.57-2.04-.29-5.43-.82-6.6-.93,0,0-.99-.23-1.64-.58-5.31-2.39-10.22-5.31-14.54-9.05h0c-.23.12-.47.18-.76.18-1.05,0-1.87-.88-1.87-1.93s.82-1.93,1.87-1.93,1.87.88,1.87,1.93c0,.29-.06.53-.18.76h0c4.26,2.39,8.53,4.79,12.73,7.18,0,0,1.69.88,2.22.88s8.7.53,8.7.53c0,0,.53,0,.82.23l.7.58s.18.12.41.12h.29v-.06c-.06-.64-.99-.7-1.05-.99-.18-.88-.35-1.81-.58-2.63-.06-.7.18-.99.76-1.23-.88-1.87-2.04-3.39-3.39-4.73-.93-.7-1.87-1.23-2.98-1.34-.18-.18-.12-.41-.06-.58-.35.12-.7.23-1.05,0l-2.45-1.93c-1.17-.64-2.34-1.05-3.56-1.17,0,0-2.28-.29-3.39-1.34-2.86-1.52-12.26-8.99-12.91-19.86,0-.47.06-.93.35-1.34,1.58-1.64,3.68-1.93,6.19-1.34,4.03,1.17,7.88,2.92,11.62,4.91,1.17.64,2.1,1.46,2.74,2.63,2.8,5.2,5.02,10.69,6.31,16.59.06.99.29,1.99.76,2.86,1.69,1.81,3.21,3.62,3.8,5.9.35,0,.58.29.76.64.41.99.76,2.04,1.17,3.04.18.53-.06.99-.41,1.34l.7,3.15,1.93,1.17s.88-.18.88-.88.76-.64,1.05-.82.88-.23,1.46-.64.82-.18.82-.18c0,0,1.4-3.5,6.95-1.52,0,0,3.62,1.69,2.86,4.91,0,0-.76,2.28-.76,2.74s0,.7-.23,1.05c0,0-.18.23-.06.76,0,0,.93-.06,1.99.58l1.34.76s.53.29.23.88c0,0-.23,1.05-.93.82,0,0-.88-.06-1.52-.58,0,0-1.46-.76-1.52.12,0,0-.64,3.39-1.58,2.57,0,0,.47,1.52,2.45,1.81,0,0,1.52-.53,2.69.18,0,0,2.57-.12,4.26.99,0,0,5.84,1.69,8.23,3.39,0,0,6.42,2.63,6.31.23h0c-4.79-3.74-6.89-6.37-5.31-7.48-5.61-9.17-4.67-15.24,6.66-15.18,1.93-1.75,5.2.29,7.83.47l2.34.35c-.93.7-2.63,2.22-2.1,3.68.29.93,3.97,5.43,8.35,9.81,3.04,3.1,6.42,6.19,9.23,8.12.35.41,2.86,2.92,5.26,3.39,1.23.53,20.97,8.99,23.24,10.8l.12.06s1.34.64,2.39.12l.06-.06,1.11-.82.06-.06s1.17-1.05.35-2.22c-.23-.41-3.33-6.19-4.61-7.42l-.06-.06s-3.5-2.74-5.9-4.38c-.35-.23-.88-.82-1.58-1.64-3.39-3.85-11.04-12.61-33-19.62h-.12l-1.23-.18,4.5-3.1c14.95,2.57,27.33,9.75,38.84,18.75,4.44,6.83,7.42,13.61,8.23,20.21.41,4.15.82,8.23,1.23,12.38-.53-2.57-1.69-4.44-3.56-5.61-2.8-1.34-5.55-2.74-8.35-4.09-8.41-3.27-16.88-6.54-25.29-9.81-5.37,1.58-14.72,1.11-17.99,2.86,3.5.76,7.01,1.46,10.45,2.22.82.18,1.69.41,2.57,1.46,0,0,4.15,7.77,12.96,8.06,5.49,5.02,10.98,9.99,16.41,15.01,3.21,2.1,6.72,7.53,9.64,6.37-4.32,3.45-9.29,5.72-15.42,5.9-9.69-.23-14.66-10.51-18.34-17.93l-1.46-3.56h0c-.35-.64-2.28-3.91-2.63-4.5-2.28-3.97-3.5-6.13-9.29-7.59h0c-3.45-.93-5.2-3.1-6.02-4.67l-6.48,3.91h0c1.46,1.81,2.8,3.97,3.56,6.37v.06s.93,6.25,2.39,9.52h0s2.34,5.96,9.58,8.06h0s1.17.47,2.51-.29l1.23-1.11c.12-.12.76-.76.88.29v.12s-2.39,4.26,3.21,5.84l.12.06v.23c.23.12.53.29.82.53l13.02,5.66s1.34,0,1.75.93l2.1.88s.7.7.58,1.69l1.99.82s1.69.93.58,2.1c0,0-.76.64-1.34.18l-2.1-.93s-1.75,1.28-2.86-.12c-1.05-1.34-13.26-5.9-13.26-5.9,0,0-.82-.18-.88-.88,0,0-.88.18-1.46-.06,0,0-1.69,2.57-2.86,2.34l-.53-.23h0l-.99,1.11s-.53.7-.29,1.87c0,0,0,1.87,2.34,1.99,0,0,.64-.35,1.28-.53s.99-.53.99-.82c0-.35.53-.7.82-1.52s3.04-.29,3.04-.29l5.9,2.45s.82.76-.29.41l-2.22-.76s-1.11-.23-.7.7l.88,1.05-1.99-.88s-1.11-.58-1.87.18c0,0-1.05.47-1.46,1.17,0,0-1.64,1.17-2.74.53,0,0-2.45.18-4.15-2.22,0,0-1.17-1.69-.29-3.45l.93-1.28h0l-2.63-1.17s-.82-.58-.12-1.46l-3.21-1.23s-.41-.35-.18-.88l-2.92-1.17s-.99.47-1.11-.29c0,0-.99.18-.93-.7l-1.99-.76c.76-.41,1.23-.99,1.23-1.58,0-.35-.18-.7-.53-.99l1.75.88s.93-.35,1.05.29c0,0,1.4-.64,1.64,1.05l1.64.7s.58-1.28,2.16-.47l1.93.82s.53-1.28,1.64-.53l3.56,1.34s.53-.47,1.28-.58c-4.67-1.69-2.98-5.55-2.69-6.07-.06-.12-.18,0-.18,0h0l-1.23,1.11h-.06c-1.46.88-2.8.35-2.92.29-7.3-2.16-9.75-8.12-9.81-8.29-1.46-3.21-2.39-9.23-2.45-9.58-.93-3.1-2.86-5.72-4.79-7.71.06.18.06.41.12.58.7,3.91.29,6.77.64,10.69.23,2.22.58,4.67,1.34,6.89.06.12.18.41.29.76.29.06.64.12.99.23,2.69,3.21,1.69,3.27,2.57,5.66-1.28-.41-2.86.12-3.97,1.75-.12.23-.29.47-.41.7.12.23.29.53.41.76-1.69.35-2.92,1.28-3.91,2.39-.18-.12-.23-.29-.47-.41-3.8,1.64-5.26,5.96-3.21,7.48.06.7.29,1.34.7,1.93,0,.18-.06.29-.06.47-1.17-.99-1.99-2.34-2.69-3.91-1.75-1.52-2.16-3.5-1.93-5.66-.99-.99-1.69-2.92-.58-4.09.35-.35.7-.76,1.05-1.11.41,1.93,1.46,4.79,3.68,6.54.18-.12.29-.23.47-.35-.23-.23-.35-.53-.58-.7-1.58-.88-3.15-4.32-2.92-6.07.47-.58.93-1.23,1.58-1.52,0-.7.23-1.17.82-1.34.23-.06.41,0,.58.12.29-.29.64-.53.99-.64.82.06,1.46.53,1.99,1.17.88-.23,1.75-.29,2.63.06,0-.29.12-.58.35-.88.12-.18.18-.29.12-.53-.12-.41-.23-.64-.12-1.05.18-.35.41-.58.7-.76-.06-.29-.18-.58-.23-.76-.76-2.34-1.17-4.96-1.4-7.24-.35-3.74.06-6.95-.64-10.69-.12-.7-.29-1.4-.47-1.99-2.1-1.87-3.85-2.98-3.85-2.98l.06-.06c-.23.29-.7.41-1.46.23-1.11-.29-2.51-1.11-3.15-1.4-3.91-1.11-10.04,1.93-9.34,6.02,0,.47.12.88.23,1.34h0l.7,1.93.18.12Zm6.48-11.86c.7.12,1.4.35,2.16.64,1.28.64,2.92.58,3.85,1.46.53.53.76,1.11.53,1.46l.12-.18s1.52.93,3.45,2.57c-1.17-3.91-2.8-6.02-3.74-6.89-.18-.18-.88-.82-1.46-1.34-1.34-.35-6.95-1.81-7.65-2.04-.64-.18-3.27-1.34-3.91-1.4-.58-.12,5.49,4.26,6.6,5.66h0l.06.06Zm47.83,16.24s-4.32-.23-7.3-2.45l11.97-5.26,2.8,1.52-7.53,6.13.06.06Zm-28.67-12.96c-4.5,1.46-7.48,4.2-7.48,4.2h0c-1.17-5.14-3.21-7.94-4.38-9.17,1.99.47,4.44,1.11,5.31,1.58,1.34.7,2.51-.35,2.51-.35l4.03,3.56.06.18h-.06Zm-10.1,29.78c.06-.06.47.18.82.58.41.41.64.82.53.88-.06.06-.47-.18-.82-.58-.41-.41-.64-.82-.53-.88Zm-2.74-2.63s.76,1.52,2.45,1.75l.29-.99s-1.28-.58-1.69-1.46l-1.05.7Zm1.34-.64c.06-.06.41.12.76.41s.64.58.58.7c-.06.06-.41-.12-.76-.41s-.64-.58-.58-.7Zm.12,4.03c.29-.29.58-.53.88-.82.23.99,1.05,1.75,1.99,2.04-.29.35-.58.7-.88.99-.7-.29-1.75-1.11-1.99-2.28v.06Zm9.17.82c1.4-.12,2.57.47,2.57,1.34s-1.17,1.69-2.57,1.81-2.57-.47-2.57-1.34,1.17-1.69,2.57-1.81Zm-2.69,1.17c-.41-2.39,4.03-3.56,4.91-.93-.53-.35-1.34-.47-2.22-.41-1.23.12-2.22.64-2.69,1.34Zm2.69-.18c.53-.06.99.18.99.53s-.47.64-.99.7-.99-.18-.99-.53.47-.64.99-.7Zm21.02,25.4s-.58-1.58-.53-3.27c.06-2.22,1.64-4.61,4.03-4.2,1.34.23,2.45,1.34,2.63,3.15l-.58.41c-.29-1.75-1.4-2.39-2.28-2.04-1.28.53-1.87,2.8-.99,4.03l-2.28,1.93Zm-80.01-73.7s.35,2.16.99.99c1.17-2.34,1.99-5.08,2.22-8.76,0,0,.06-.88-.64-.35-.29.35-.58.76-.88,1.11,0,2.51-.7,4.79-1.69,7.01Zm-20.21-11.74c7.18,1.64,14.42,3.27,21.61,4.91,0,2.16-.41,4.2-1.4,6.13-7.18-1.46-14.31-2.98-21.49-4.44.7-2.22,1.17-4.38,1.23-6.6h.06Zm-2.63,6.02c-.06.58.76,1.05.88.53.76-2.1,1.34-4.32,1.28-6.77,0-.53-.88-.76-1.11-.29.12,2.22-.29,4.38-1.11,6.54h.06Zm-4.15-.88c-3.85-.47-4.15-7.59,1.81-6.54,1.05.23,2.1.53,3.21.76.18,2.22-.18,4.32-.99,6.37-1.34-.18-2.69-.41-4.03-.58Zm89.18,23.24c.41,1.28,1.87,4.32,6.02,5.43h0c5.66,1.4,7.18,3.5,9.29,7.12l-.99-2.39c-.53-.99-1.23-1.87-2.22-2.57-3.74-2.28-7.48-4.56-11.21-6.89l-.88-.76v.06Zm0,16.41s-.76,1.46.7,4.38c1.46,2.98,5.55,6.6,5.55,6.6,0,0,4.5,3.97,7.01-2.57,0,0,1.75-.29,1.46,2.04,0,0-2.51,5.78,1.99,6.07,0,0,5.66,3.21,7.59,3.8,0,0,2.16-1.11,3.27-.88,0,0-4.91-4.73-8.7-12.26-3.91-4.15-8.23-10.04-9.75-15.42,0,0-1.11-.76-4.5-1.87,0,0,2.1,2.39.58,4.03-1.69,2.04-4.26,4.03-5.14,6.13l-.06-.06Zm2.69-46.14c-.58.41-2.28,1.69-1.99,2.57.29.82,3.8,5.08,8.06,9.34,2.98,3.04,6.37,6.13,9.11,8l.12.06s2.51,2.69,4.73,3.04l.12.06c.06,0,20.79,8.88,23.54,10.98.18.06.82.35,1.23.12l1.05-.76c.06-.12.35-.41.18-.64l-.06-.06s-3.21-5.96-4.38-7.07c-.35-.29-3.56-2.74-5.78-4.32-.47-.35-1.05-.99-1.81-1.87-3.27-3.8-10.8-12.32-32.41-19.21l-1.58-.23h-.12Zm-17.23,13.61h9.29s8.41-.06,5.72,6.19c0,0-3.33,1.75-8.53,2.04l-.35-.35h0c-.7-.53-8.29-6.13-6.37-7.48l.35-.23-.06-.12-.06-.06Zm27.97,18.92s2.74-2.74,5.02-4.09l-6.48.58,1.46,3.5Zm.7.53s.82,1.46,1.58,2.04l3.21-6.13-4.79,4.09Zm1.87,2.57l3.39-6.25,3.68,1.28-7.07,4.96Zm3.45,3.21l.35-5.2-3.33,2.39,3.04,2.74-.06.06Zm1.11-5.61l3.21-2.28-3.33,7.59.18-5.31h-.06Zm3.91-1.87l6.48,2.51-9.4,4.15,2.92-6.66Zm22.31,28.27c1.46-1.75,7.53-9.29,7.59-13.55,0,0,2.74,4.15,1.69,8.41,0,0-1.99,6.07-2.92,8.41l-.47.18c-.18.06-.35.12-.53.12-1.75.12-4.15-2.39-5.31-3.56l-.06-.06v.06Zm-12.67-12.26l1.46,1.69,12.5-2.22-13.9.58-.06-.06Zm4.61-9.99l14.31,7.65-3.56.88-11.04.29.29-8.82Zm-4.5,9.05l3.62-9.52-.64,9.34-2.98.18Zm15.36.53s-.18,8.12-2.98,11.86c0,0,6.42-6.54,7.07-13.14l-2.28.76-1.87.53h.06Zm-13.37,2.63s9.05-1.34,12.15-2.28c0,0,.06,6.95-2.34,10.75l-9.81-8.47Zm-7.53-7.53l7.01-6.13,1.34.47-3.68,10.57-4.61-4.91h-.06Zm-16.59,30.13l.76,3.21c-.35-.12-.7-.29-.93-.64-.12-.18-.23-.47-.23-.7v-.12c-.06-.41-.06-1.11.18-1.46l.23-.23v-.06Zm-130.99,78.78l.7-.99s.53.93,1.75,1.23l-.06,1.52c-1.46-.23-1.99-1.23-2.34-1.75h-.06Zm130.99-13.26l-8.58-23.01c-.41-2.39,1.93-3.74,4.96-4.67.82-.23,1.05-.12,1.4.76l8.76,23.24h0c-2.04.88-5.08,1.75-6.48,3.68h-.06Zm4.38,14.54l-4.38-11.1c-1.46-4.09,3.91-5.49,6.66-6.66.58-.12.88.35,1.05.93.41,1.05.82,2.04,1.28,3.1.82-.18,1.64-.35,2.45-.58,1.4-.18,2.63.64,3.45,2.86,1.17,3.1,2.34,6.13,3.56,9.23.88,1.99,2.45,2.69,4.15,3.85,1.69,1.58,3.5,8.99,0,12.5-1.99,1.05-3.68,2.1-5.2,3.33-2.74-.12-5.08-1.11-7.07-2.86.18,0,.35-.06.47-.18h0c2.34-1.46,4.61-2.92,6.95-4.38h.06l.06-.06c.41-.35.47-.93.23-1.4h0c-.23-.47-.41-.93-.64-1.4.35-3.1-.7-5.72-2.98-7.88-.93-1.58-2.39-3.45-4.38-3.62-2.39-.12-4.32.82-5.43,2.98h0c-.18.47-.29.93-.29,1.4v-.06Zm-13.84-6.77h4.61l1.93,5.14s.53,1.75.35,2.8c0,0-1.81.35-1.46,2.69l-2.92,8s-1.34,3.21-3.91,2.92l-2.63-.47v.23l-.23.12c-.12.06-.23.18-.35.29l-.64,3.5c.06.35.18.7.23.99.06.06.06.18.12.23l.76.12h0c.82,11.5,5.31,21.96,15.07,29.2,1.99,1.28,3.97,2.28,5.96,3.1l-.58,2.86c-1.11,3.74-4.44,2.86-4.44,2.86-13.55-2.28-17.4-20.09-19.1-32,0-.64-.06-1.34-.06-1.99.88.93,2.74.76,2.74.76,1.4.53-.88-4.91-.88-4.91-1.34-4.2.93-5.43.93-5.43.06-1.05.7-2.34,1.17-3.15.18-.23.35-.53.53-.82h0c.88-1.64,1.17-3.91.06-6.95,0,0,4.61-5.26,2.28-9.64,0,0-.18-1.46.06-2.92,1.75-3.85,3.8-7.53,6.07-11.15l-1.75-4.73c-2.51,3.33-4.79,6.72-6.77,10.22h0s-2.57.35-3.27,3.15c0,0-1.28-.06-1.58.7,0,0-.99,1.28-.06,2.86l1.17.99s-2.22,1.75-2.04,5.43c-1.58,4.85-2.69,9.87-3.15,15.13-.64.12-1.75.35-2.16,1.05,0,0-.82,1.17.18,2.28l1.34,1.28s-.47,1.93.41,2.69h0c.06,2.92.23,5.9.64,8.99,4.85,25.29,18.34,36.91,36.09,41.58,15.42,2.57,29.84-2.16,43.27-13.96-.82.64-1.69,1.23-2.51,1.81l-12.21-14.31c2.28-1.99,4.44-4.2,6.48-6.72,2.74-3.74,4.96-7.77,6.6-12.03h0l13.96,14.89c-1.87,3.27-4.03,6.54-6.6,9.87,8.99-8.99,13.78-19.27,16-30.78,2.28-12.09,2.39-24.06-2.57-35.51-10.22-23.54-36.09-31.83-54.25-22.72.76-.29,1.46-.53,2.22-.76.41.12.93.23,1.58.35,6.13,1.05,4.26,5.49,4.26,5.49h0c-2.8-.29-5.78-.23-8.99.18.06,2.74.06,5.49.12,8.23,2.34.12,4.73.18,7.07.29,3.39.23,6.37,1.34,9.11,3.27.41.29.82.64,1.28,1.05.18.41.23.93-.18,1.46-.23.35-1.4,1.69-1.05,2.28.76-.58,1.69-.76,2.57-.41,1.34.58,1.93,2.28,1.28,3.8-.06.18-.18.35-.29.53l.29.29s.29.18.53-.18l1.58-1.4s.53-.58,1.23-.29h0c.23.29.47.53.64.82,3.8,4.96,5.66,13.37,5.37,21.78-.06,1.17-.18,2.34-.41,3.62-.64.58-1.34.47-1.34.47,0,0-.35-.12-1.75-.18-.82-.06-.93.47-.93.93.88.58,1.46,1.58,1.46,2.74,0,1.75-1.34,3.21-2.98,3.21h-.29c0,.88,1.52,1.28,1.52,1.28.93.41,1.23,1.17,1.4,1.69-1.05,2.57-2.28,4.96-3.56,6.89-3.39,5.14-7.77,9.23-13.02,12.32-.41.23-.99.47-1.69.76-1.64.12-2.04-2.57-2.04-2.57-.12-.58-.58-.64-.88-.64v.29c0,1.64-1.17,2.98-2.63,2.98-1.17,0-2.1-.82-2.45-1.99-.47.18-.41.99-.41.99l.06,2.04c-.35,2.63-7.01,1.52-8.76,1.17-3.85-.76-7.42-2.63-10.8-5.78-1.05-.99-2.22-2.1-1.23-3.56l1.11-1.34c.41-.41.06-.76-.18-.99-.76.76-1.81,1.05-2.69.58-1.17-.58-1.58-2.28-.82-3.74.18-.35.41-.7.64-.93-.53-.35-1.75,1.11-1.75,1.11-.47.35-.93.35-1.28.23-.23-.47-.53-.88-.7-1.28-1.52-2.86-2.39-5.66-2.63-8.53.53-.18,1.23-.47,1.81-.99,0,0,.82-.58,2.16-1.46h0c-.41.53,1.64,7.77,2.28,7.94.29.58.29,1.58.29,1.58-.06.41.12.82.29.99.76-.53,1.64-.7,2.39-.35,1.17.58,1.58,2.22.82,3.74-.12.23-.29.47-.41.7l.06.12c.53.93,1.05.58,1.05.58.35-.12.58,0,.82.23,1.52,1.58,3.1,2.74,4.85,3.62,3.5,1.75,7.42,2.22,11.5,2.04.41.06.76.53.76.53.23.35.58.35.82.29-.06-.18-.06-.41-.06-.58,0-1.64,1.17-2.98,2.63-2.98,1.17,0,2.1.82,2.45,2.04h.12c.58.06,1.05-.53,1.17-.93.12-.35.82-.82.82-.82,6.48-3.5,11.33-8.7,14.42-15.59.35-.58.76-.64.76-.64.47-.35.58-.99.58-1.17-1.23-.41-2.1-1.64-2.1-3.04,0-1.75,1.28-3.21,2.92-3.21.29,0,.58.06.88.12h0c.29-.29.47-.93.18-1.28s-.41-.93-.41-.93c.93-3.68-.93-16.29-3.68-20.09-.41-.53-.58-1.34-.53-1.69.06-.29-.41-.88-.64-1.17-.76.88-1.93,1.23-2.92.82-1.34-.53-1.93-2.22-1.28-3.8.12-.29.29-.58.47-.82-.29-.35-.76-.35-.99-.29-.29.12-.88-.29-.88-.29-4.03-2.92-9.58-3.74-16.24-2.92-3.04.64-5.2,2.45-6.89,4.91,1.05.53,1.75,1.69,2.16,2.86,1.17,3.1,2.34,6.13,3.56,9.17.82,1.87,2.39,2.57,3.97,3.62h0c.76.7,1.28,2.04,1.58,2.98.41,1.46.64,3.04.58,4.56-.06,2.04-.64,4.15-2.16,5.66l-.06.06-.06.06c-1.81.93-3.56,1.99-5.14,3.27l-.12.12h-.18c-2.8-.12-5.26-1.11-7.36-2.98l-.76-.64h-.12c.64,1.4.76,2.8-.23,4.2-1.58,2.22-3.27,4.38-5.14,6.25-1.64,1.4-2.92,1.17-3.91-1.11-.7-2.22-1.28-4.44-1.4-6.66,2.92-1.87,6.83-4.32,9.34-5.49.18.18.29.41.47.58.47.58.93,1.17,1.34,1.81.29.29.64.23.99.06,2.34-1.46,4.61-2.92,6.95-4.38.23-.18.23-.47.12-.82l-.7-1.58c.41-2.86-.53-5.43-2.86-7.65-1.17-2.04-2.51-3.33-3.97-3.39-2.28-.12-3.91.82-4.91,2.69-.47,1.23-.29,2.63.23,4.09-.06.64-.06,1.28-.12,1.87-.23.29-.47.53-.7.82-.53.76.41,1.87,1.05,2.28.18.47.41.88.64,1.28-.53-.76-1.05-1.46-1.4-1.81,0,0-.64-.53-.64-1.34,0,0-.29-.29-.76.29l-7.12,6.54s-.64.58-.88.12c0,0-.23-.35.35-.93l4.73-7.94s-.23-3.1,1.69-3.85l1.52-.58-2.8-7.12-1.58,3.27c-.53-1.52-1.87-7.24-3.45-7.36h-3.91c-1.52,1.23-1.64,2.92-1.52,4.85l-.06-.06Zm19.45,6.89c1.52-.88,3.5-.58,4.56.47,1.11,1.17,1.81,2.74,1.81,4.5,0,3.56-2.57,6.83-6.31,6.48-2.34-.35-3.5-2.16-3.97-4.2.06.12.12.29.18.41,1.11,3.62,5.2,4.61,7.94,1.81,1.11-1.17,1.81-2.74,1.81-4.44s-.7-3.15-1.81-4.26c-.93-.93-2.63-1.28-4.09-.76,1.64.53,2.74,1.17,3.33,1.99-.82,1.64-.76,3.21-.58,4.79-1.4.76-2.63,1.64-3.45,2.74-.88-.18-1.58-.64-2.22-1.28,5.14,1.34,7.42-6.31,1.99-7.65l.41-.35.41-.35h.06l-.06.12Zm-1.05,1.05c1.64,0,2.98,1.58,2.98,3.56,0,.76-.47,1.75-.99,2.34-1.28,1.4-3.1,1.64-4.26,0-.47-.64-.7-1.46-.7-2.34,0-1.99,1.34-3.56,2.98-3.56Zm0,1.17c1.11,0,1.99,1.05,1.99,2.39,0,.53-.29,1.17-.64,1.58-.88.93-2.1,1.11-2.86,0-.29-.41-.47-.93-.47-1.58,0-1.34.88-2.39,1.99-2.39Zm0-.53c1.34,0,2.45,1.28,2.45,2.92,0,.64-.35,1.4-.82,1.87-1.05,1.17-2.51,1.34-3.5,0-.35-.53-.58-1.17-.58-1.87,0-1.64,1.11-2.92,2.45-2.92Zm4.73.47l.76.58c.88,3.21-.47,5.84-3.39,7.3l-1.46-.35c.82-1.17,2.1-1.99,3.39-2.69l.12-.06v-.18c-.18-1.64-.18-3.15.58-4.67v.06Zm27.56-18.8c1.17.47,1.69,1.99,1.11,3.33s-1.99,2.04-3.15,1.58-1.69-1.99-1.11-3.33,1.99-2.04,3.15-1.58Zm-.35.88c.76.29,1.05,1.28.7,2.16s-1.28,1.34-1.99.99c-.76-.29-1.05-1.28-.7-2.16s1.28-1.34,1.99-.99Zm-3.27,8.82c.76-1.17,1.99-1.75,3.04-1.4,3.45,1.05,4.38,14.19,4.26,17.46-.76,3.85-3.45,2.8-6.02,1.81-4.91-1.87-4.73-2.34-5.49-7.48-.18-1.4-.12-2.63.23-3.56,1.17-2.39,2.45-4.67,3.85-6.83h.12Zm-6.83,3.62s-.35.88.18,1.34c0,0,.58.41,1.23-.12,0,0,1.46-1.17,1.81-2.63,0,0,.18-.99-.35-1.34,0,0-.58-.35-.99.18l-1.87,2.57Zm-11.56-10.8c-.23-1.93.64-3.15,2.98-3.62,3.62-.53,7.24.06,10.8,1.81,2.28,1.23,3.33,2.74,1.99,4.79-1.52,1.69-2.92,3.56-4.56,5.14-1.87,1.81-3.45,2.63-6.07,1.4-2.69-1.81-4.56-6.48-5.14-9.52Zm14.37,26.75c.23-1.05,1.23-.82,1.93-.64.88.18,1.87.47,1.69,1.52-.12.93-1.17.99-2.04.76-.93-.18-1.75-.41-1.58-1.64Zm-7.12,18.86s-.18,3.39,3.21,2.74c2.51-.99,4.79-3.27,6.72-5.49,2.04-2.39,3.91-4.85,5.26-7.59.58-1.87.18-3.21-1.46-3.97-1.93-.41-3.91-.64-5.9-.58-2.34-.35-3.68.76-4.73,2.51-1.64,1.4-2.8,2.92-2.86,4.91-.06,2.45-.12,4.96-.18,7.42l-.06.06Zm-2.86-7.65h0c.58-.06.99.35.99.93v2.74c0,.58-.47,1.05-.99,1.17h0c-.58.06-.99-.35-.99-.93v-2.74c0-.58.47-1.05.99-1.17Zm-17.23,4.38c-1.17,1.58-1.17,3.15.29,4.61,3.74,2.8,8.12,4.5,12.85,4.44,1.75-.35,2.74-1.64,2.39-4.44-.23-2.51-.64-4.85-1.34-7.12-.41-.93-.99-1.64-1.93-2.04-.88-.29-1.69-.58-2.57-.88-1.17-.29-2.22-.12-3.21.53-2.16,1.64-4.85,3.15-6.42,4.91h-.06Zm5.02-8.12h0c.47.35.47.93.12,1.34l-1.87,1.93c-.41.41-1.05.47-1.52.12h0c-.47-.35-.47-.93-.12-1.34l1.87-1.93c.41-.41,1.05-.47,1.52-.12Zm49.64,4.91s-2.1-5.61,2.22-7.94c3.56-1.93,13.14-4.79,16.35-5.78-.7,9.52-2.86,18.16-7.12,26.63l-11.45-12.91Zm18.75-17.64l-19.56,6.83h0c1.28-7.48,1.05-15.07-.7-21.9h0l16.59-6.95c2.04,4.56,3.33,9.46,3.68,14.54.06,2.57.06,5.08,0,7.48Zm-21.78,11.68l-.06.18c-.29.53-.88.7-1.34.47s-.58-.88-.29-1.4.88-.7,1.34-.47c.41.23.58.76.41,1.23h-.06Zm-7.3,43.45s1.58-2.8-.58-5.55c-1.81-2.39-7.07-8.58-8.58-10.4-2.04,1.58-4.15,2.92-6.31,4.03l-3.85,12.67s-1.52,5.49,2.63,6.48c5.2-1.23,10.75-3.62,16.64-7.24h.06Zm-4.56-48.24c.93,0,1.64.82,1.64,1.81s-.76,1.81-1.64,1.81c-.93,0-1.64-.82-1.64-1.81s.76-1.81,1.64-1.81Zm-44.15,14.07c1.05.53,1.4,2.04.76,3.33-.64,1.34-2.04,1.99-3.1,1.52-1.05-.53-1.4-2.04-.76-3.33.64-1.34,2.04-1.99,3.1-1.52Zm-.47.99c.64.29.82,1.17.41,1.93-.35.76-1.17,1.17-1.81.88s-.82-1.17-.41-1.93c.35-.76,1.17-1.17,1.81-.88Zm23.42,7.24c1.28,0,2.39,1.23,2.39,2.69s-1.05,2.69-2.39,2.69-2.39-1.23-2.39-2.69,1.05-2.69,2.39-2.69Zm0,1.05c.82,0,1.46.76,1.46,1.64,0,.93-.64,1.64-1.46,1.64s-1.46-.76-1.46-1.64c0-.93.64-1.64,1.46-1.64Zm21.2-24.35c1.4,0,2.57,1.23,2.57,2.8s-1.17,2.8-2.57,2.8-2.57-1.23-2.57-2.8,1.17-2.8,2.57-2.8Zm-55.6,10.45c.41.06.7.47.64.93s-.47.76-.88.7-.7-.47-.64-.93.47-.76.88-.7Zm31.94,23.18c.47.23.58.88.29,1.4s-.88.7-1.34.47-.58-.88-.29-1.4.88-.7,1.34-.47Zm-23.94-7.53c.41.06.7.53.64,1.05s-.47.88-.88.82-.7-.53-.64-1.05.47-.88.88-.82Zm2.51,4.15c.41.06.7.53.64,1.05s-.47.88-.88.82-.7-.53-.64-1.05.47-.88.88-.82Zm4.67,0c.41.06.7.53.64,1.05s-.47.88-.88.82-.7-.53-.64-1.05.47-.88.88-.82Zm2.57,5.66c.47.06.76.58.7,1.17s-.53.99-.99.88c-.47-.06-.76-.58-.7-1.17s.53-.99.99-.88Zm4.96-1.4c.47.06.76.58.7,1.17s-.53.99-.99.88c-.47-.06-.76-.58-.7-1.17s.53-.99.99-.88Zm4.15,2.04c.47.06.76.58.7,1.17s-.53.99-.99.88c-.47-.06-.76-.58-.7-1.17s.53-.99.99-.88Zm-23.07-12.09c.41.06.7.53.64,1.05s-.47.88-.88.82-.7-.53-.64-1.05.47-.88.88-.82Zm2.63-1.93c-.47-.29-.47-.99-.12-1.64.41-.64,1.05-.93,1.52-.64s.47.99.12,1.64c-.41.64-1.05.93-1.52.64Zm-2.39-4.56c.41.06.7.53.64,1.05s-.47.88-.88.82-.7-.53-.64-1.05.47-.88.88-.82Zm-3.68-2.63c.41.06.7.53.64,1.05s-.47.88-.88.82-.7-.53-.64-1.05.47-.88.88-.82Zm27.16,41.52c.12,0,6.95-1.23,7.94-6.19l2.69-10.69c-5.37,1.58-11.04,1.81-16.59.41l-1.69,5.26s-1.17,4.15,1.81,6.42l5.9,4.79h-.06Zm21.9-110.84c3.8.29,7.42,1.11,10.92,2.39.64.64,1.4,1.69,1.93,2.22.7.76-.47,3.97-.47,3.97l-2.16,7.48h0c-3.68-3.68-8.23-6.37-13.84-7.71l.12-3.04c.41-2.63,2.16-4.32,3.45-5.31h.06Zm21.2,7.83c4.61,3.33,8.64,7.59,11.74,12.44l-.18-.06c0,3.33-2.74,4.56-2.74,4.56l-11.8,4.15h0c-1.05-2.86-2.34-5.49-3.97-7.94l2.39-10.86c.76-2.45,3.62-2.34,4.56-2.28Zm-26.05,5.31c.41.18.53.76.29,1.34s-.76.93-1.17.76-.53-.76-.29-1.34.76-.93,1.17-.76Zm5.14-.88c.41.18.53.76.29,1.34s-.76.93-1.17.76-.53-.76-.29-1.34.76-.93,1.17-.76Zm18.16,22.78c.47.23.58.88.29,1.4s-.88.7-1.34.47-.58-.88-.29-1.4.88-.7,1.34-.47Zm-15.18-19.21c.41.18.53.76.29,1.34s-.76.93-1.17.76-.53-.76-.29-1.34.76-.93,1.17-.76Zm11.21,15.01c.47.23.58.88.29,1.4s-.88.7-1.34.47-.58-.88-.29-1.4.88-.7,1.34-.47Zm-.88-5.26c.47.23.58.88.29,1.4s-.88.7-1.34.47-.58-.88-.29-1.4.88-.7,1.34-.47Zm-4.67-2.34c.35.23.35.88,0,1.4s-.93.76-1.28.53-.35-.88,0-1.4.93-.76,1.28-.53Zm-4.09-2.1c.41.29.47.99.06,1.64s-1.05.93-1.52.64c-.41-.29-.47-.99-.06-1.64s1.05-.93,1.52-.64Zm3.74-4.5c.41.18.53.76.29,1.34s-.76.93-1.17.76-.53-.76-.29-1.34.76-.93,1.17-.76Zm-.82,56.59c.47.23.58.88.29,1.4s-.88.7-1.34.47-.58-.88-.29-1.4.88-.7,1.34-.47Zm-21.72,13.78c-.53,0-.93-.58-.93-1.34s.41-1.34.93-1.34.93.58.93,1.34-.41,1.34-.93,1.34Zm1.52,3.68c.47.23.58.88.29,1.4s-.88.7-1.34.47-.58-.88-.29-1.4.88-.7,1.34-.47Zm4.2-3.97c.47.23.58.88.29,1.4s-.88.7-1.34.47-.58-.88-.29-1.4.88-.7,1.34-.47Zm4.85-1.05c.47.23.58.88.29,1.4s-.88.7-1.34.47-.58-.88-.29-1.4.88-.7,1.34-.47Zm3.04-5.61c.47.23.58.88.29,1.4s-.88.7-1.34.47-.58-.88-.29-1.4.88-.7,1.34-.47Zm6.13-.47c.47.23.58.88.29,1.4s-.88.7-1.34.47-.58-.88-.29-1.4.88-.7,1.34-.47Zm6.13-10.34c.47.23.58.88.29,1.4s-.88.7-1.34.47-.58-.88-.29-1.4.88-.7,1.34-.47Zm.06-6.42c.47.23.58.88.29,1.4s-.88.7-1.34.47-.58-.88-.29-1.4.88-.7,1.34-.47Zm.88-4.56c-.12.53-.76.82-1.52.64-.7-.18-1.23-.7-1.11-1.17.12-.53.76-.82,1.52-.64.7.18,1.23.7,1.11,1.17Zm3.39-5.9c.47.23.58.88.29,1.4s-.88.7-1.34.47-.58-.88-.29-1.4.88-.7,1.34-.47Zm1.93-5.61c.47.23.58.88.29,1.4s-.88.7-1.34.47-.58-.88-.29-1.4.88-.7,1.34-.47Zm-2.92-5.2c.47.23.58.88.29,1.4s-.88.7-1.34.47-.58-.88-.29-1.4.88-.7,1.34-.47Zm-82.29,50.46c.7,1.46-.06,6.02,2.51,5.08-1.93.06-.53-4.44-2.51-5.08Zm91.16,20.79c3.45.23,9.4,5.96,11.91.76-2.8,3.27-7.83-3.45-11.91-.76Zm-12.67,20.09c-.18.41,4.26.41,5.02.29,11.91-.53,18.63-5.9,27.62-13.32.18-.18.29-.35.47-.53-.23,0-.47.06-.7.06-8.88,6.89-15.65,12.5-27.16,13.08-.64.06-5.31-.06-5.26.41Zm-73.7-31.71c.93,1.81,0,7.48,3.15,6.31-2.39.12-.7-5.49-3.15-6.31Zm6.89,9.34c1.11,1.69.76,7.48,3.8,5.96-2.34.35-1.28-5.43-3.8-5.96Zm8.94,8.88c1.4,1.46,2.1,7.18,4.85,5.14-2.22.82-2.28-5.08-4.85-5.14Zm10.1,5.2c1.69,1.81,2.57,8.76,5.9,6.25-2.74.99-2.74-6.19-5.9-6.25Zm11.74,3.68c2.39,1.69,4.2,8.53,8.41,5.84-3.56,1.17-4.2-6.02-8.41-5.84Zm10.92-.29c2.51,1.75,4.38,8.94,8.76,6.13-3.68,1.17-4.38-6.25-8.76-6.13Zm16.29-1.93c3.21,1.17,7.42,8.29,11.27,3.97-3.62,2.39-6.6-5.43-11.27-3.97Zm10.75-6.19c4.44,1.17,12.03,8.99,15.36,4.09-3.68,2.74-10.04-5.84-15.36-4.09Zm18.05-128.07c.53-2.16,5.55-5.78,1.87-7.53,2.22,1.87-3.45,4.85-1.87,7.53Zm-20.56-9.17c-.29-1.52,1.87-5.37-1.05-5.37,1.99.58-.76,4.15,1.05,5.37Zm10.4,3.68c.06-1.58,3.04-4.79.23-5.49,1.81.99-1.69,3.85-.23,5.49Zm16.88,129.76c-.29.06-.99.64.7.12,0,0,4.67-1.46,6.02-2.04,13.37-5.66,12.32-13.84,19.91-23.59.23-.29,0-.53-.41-.12-5.08,5.61-5.78,10.04-9.05,14.07-2.74,3.45-6.07,6.37-11.1,8.88-2.04.88-4.15,1.81-6.19,2.69h.12Zm20.32-29.26s-.23.88.53.18c6.13-5.49,9.11-6.07,10.92-11.27,2.34-6.72.93-14.89,3.5-20.73.12-.23,0-.58-.23-.29-3.91,8.41-1.34,19.74-7.53,25.58-2.39,2.16-4.79,4.32-7.18,6.54Zm8.23-35.39s-.29.82,0,.93c0,0,.12.18.41-.53,1.52-2.8,5.2-3.27,5.31-10.04.23-7.77-4.03-14.31-3.97-20.21,0,0-.06-1.34-.23-.35,0,0-.06,5.31,1.4,8.99,0,0,2.28,6.54,1.93,8.76.12,2.92-.47,5.37-1.69,7.42-1.05,1.69-2.16,3.39-3.21,5.08l.06-.06Zm-5.26-32.47s.18.88.7-.29c0,0,.88-1.87,1.11-2.86,1.17-4.38-1.34-9.23-4.2-12.44-2.45-2.8-4.61-5.43-6.89-8.35,1.52,3.74,5.02,6.83,7.53,10.22,5.78,8.06.99,10.28,1.75,13.72Zm-25,82.99c3.91-.53,12.56,3.97,13.67-1.75-2.1,3.91-9.93-1.81-13.67,1.75Zm7.48-13.61c3.27-1.11,10.92,1.99,11.33-3.8-1.4,4.09-8.53-.23-11.33,3.8Zm6.95-15.18c3.68-1.69,13.14.88,12.79-5.96-1.05,5.02-10.04.88-12.79,5.96Zm4.15-16.53c2.16-1.28,10.04-.76,7.48-4.56.88,2.92-7.18,1.46-7.48,4.56Zm-.41-15.3c2.92-2.86,12.67-3.5,10.1-9.87.64,5.08-9.23,4.15-10.1,9.87Zm-1.93-15.88c1.46-1.69,7.53-2.69,5.02-5.9,1.11,2.69-5.26,2.8-5.02,5.9Zm-12.15-24.76c.64-1.69,5.02-4.09,2.28-5.84,1.58,1.75-3.27,3.56-2.28,5.84Z" vector-effect="non-scaling-stroke"/></g><g id="SvgjsG1873"><path d="m392.67,69.6h37.35l33.2,81.25,2.51-6.01,6.22-14.96,7.97-19.55,7.97-19.66,6.12-15.07,2.4-6.01h34.95l7.64,155.95h-36.04l-1.53-91.08-25.55,59.41h-26.43l-26.43-59.41-2.4,91.08h-33.85l5.9-155.95Zm221.91,40.63c7.57,0,14.63,1.06,21.19,3.17,6.55,2.11,12.2,5.5,16.93,10.16,4.73,4.66,8.45,10.7,11.14,18.13,2.69,7.43,4.04,16.38,4.04,26.87s-1.35,19.44-4.04,26.87c-2.69,7.43-6.41,13.47-11.14,18.13-4.73,4.66-10.37,8.04-16.93,10.16-6.55,2.11-13.61,3.17-21.19,3.17s-14.82-1.06-21.3-3.17c-6.48-2.11-12.09-5.5-16.82-10.16-4.73-4.66-8.45-10.7-11.14-18.13-2.69-7.43-4.04-16.38-4.04-26.87s1.35-19.18,4.04-26.54c2.69-7.35,6.41-13.4,11.14-18.13,4.73-4.73,10.34-8.19,16.82-10.37s13.58-3.28,21.3-3.28h0Zm0,88.02c6.55,0,11.69-2.18,15.4-6.55s5.57-12.09,5.57-23.15-1.86-18.82-5.57-23.26c-3.71-4.44-8.85-6.66-15.4-6.66s-11.54,2.29-15.4,6.88c-3.86,4.59-5.79,12.27-5.79,23.04s1.89,18.78,5.68,23.15c3.79,4.37,8.96,6.55,15.51,6.55Zm79.72-59.41h-13.54v-27.52h13.54v-31.02h32.76v31.02h27.08l-15.29,27.52h-12.89l1.09,6.99v34.29c0,3.79.25,6.84.76,9.17.51,2.33,1.31,4.15,2.4,5.46,1.09,1.31,2.48,2.22,4.15,2.73,1.67.51,3.6.76,5.79.76,1.6,0,3.57-.18,5.9-.55,2.33-.36,4.81-.76,7.43-1.2l1.75,14.63,1.31,13.1c-4.22.87-8.08,1.53-11.58,1.97-3.49.44-7.06.66-10.7.66-13.54,0-23.59-3.13-30.14-9.39s-9.83-16.6-9.83-31.02v-47.61Zm126.24-28.61c7.57,0,14.63,1.06,21.19,3.17,6.55,2.11,12.2,5.5,16.93,10.16,4.73,4.66,8.45,10.7,11.14,18.13,2.69,7.43,4.04,16.38,4.04,26.87s-1.35,19.44-4.04,26.87c-2.69,7.43-6.41,13.47-11.14,18.13-4.73,4.66-10.37,8.04-16.93,10.16-6.55,2.11-13.61,3.17-21.19,3.17s-14.82-1.06-21.3-3.17c-6.48-2.11-12.09-5.5-16.82-10.16-4.73-4.66-8.45-10.7-11.14-18.13-2.69-7.43-4.04-16.38-4.04-26.87s1.35-19.18,4.04-26.54c2.69-7.35,6.41-13.4,11.14-18.13,4.73-4.73,10.34-8.19,16.82-10.37s13.58-3.28,21.3-3.28h0Zm0,88.02c6.55,0,11.69-2.18,15.4-6.55s5.57-12.09,5.57-23.15-1.86-18.82-5.57-23.26c-3.71-4.44-8.85-6.66-15.4-6.66s-11.54,2.29-15.4,6.88c-3.86,4.59-5.79,12.27-5.79,23.04s1.89,18.78,5.68,23.15,8.96,6.55,15.51,6.55Zm77.1-128.87h35.82s0,58.97,0,58.97h46.52v-58.97h35.82v156.17h-35.82v-66.62c-.87.15-1.67.29-2.4.44l-2.62.44h-36.69l-4.81-.87v66.62h-35.82V69.38Zm143.06,42.15h33.2s0,59.41,0,59.41c0,5.1.44,9.36,1.31,12.78.87,3.42,2.18,6.12,3.93,8.08,1.75,1.97,3.9,3.35,6.44,4.15,2.55.8,5.57,1.2,9.06,1.2,4.22,0,8.01-.22,11.36-.66l-.44-3.93v-81.03h33.2v107.9c-5.39,1.89-11.83,3.57-19.33,5.02-7.5,1.46-15.18,2.18-23.04,2.18-7.43,0-14.52-.58-21.3-1.75-6.77-1.16-12.7-3.64-17.8-7.43-5.1-3.79-9.14-9.28-12.12-16.49-2.99-7.21-4.48-16.93-4.48-29.16v-60.28h0Zm157.91-39.31v37.79s-1.09,4.59-1.09,4.59c0-.15,1.46-.62,4.37-1.42s6.92-1.2,12.01-1.2c7.57,0,14.56,1.13,20.97,3.39s11.9,5.72,16.49,10.37c4.59,4.66,8.15,10.59,10.7,17.8,2.55,7.21,3.82,15.84,3.82,25.88,0,7.86-.91,15.25-2.73,22.17-1.82,6.92-4.84,13-9.06,18.24-4.22,5.24-9.76,9.39-16.6,12.45-6.84,3.06-15.29,4.59-25.34,4.59h-5.79l-10.27-.44-13.43-1.31-15.29-2.62v-123.41h-18.13l13.98-26.65,35.38-.22Zm10.48,125.37c3.49,0,6.81-.44,9.94-1.31s5.82-2.4,8.08-4.59c2.26-2.18,4.08-5.1,5.46-8.74,1.38-3.64,2.07-8.15,2.07-13.54s-.66-10.01-1.97-13.87c-1.31-3.86-3.06-6.99-5.24-9.39-2.18-2.4-4.77-4.15-7.75-5.24s-6.15-1.64-9.5-1.64c-1.75,0-3.79.15-6.12.44s-4.15.58-5.46.87v56.13c1.6.29,3.24.51,4.91.66,1.67.15,3.53.22,5.57.22h0Z" vector-effect="non-scaling-stroke"/></g></g></svg>